<?xml version="1.0" encoding="utf-8"?>
<!-- Generator: Adobe Illustrator 16.0.0, SVG Export Plug-In . SVG Version: 6.00 Build 0)  -->
<!DOCTYPE svg PUBLIC "-//W3C//DTD SVG 1.1//EN" "http://www.w3.org/Graphics/SVG/1.1/DTD/svg11.dtd">
<svg version="1.1" id="Direction_Arrow" xmlns="http://www.w3.org/2000/svg" xmlns:xlink="http://www.w3.org/1999/xlink" x="0px"
	 y="0px" width="1000px" height="1000px" viewBox="0 0 1000 1000" enable-background="new 0 0 1000 1000" xml:space="preserve">
<path d="M500,30.024c259.781,0,470.375,210.595,470.375,470.376c0,259.781-210.594,470.375-470.375,470.375
	c-259.782,0-470.376-210.594-470.376-470.375C29.624,240.619,240.219,30.024,500,30.024z M500,0
	c276.363,0,500.4,224.037,500.4,500.4c0,276.363-224.037,500.399-500.4,500.399C223.637,1000.8-0.4,776.764-0.4,500.4
	C-0.4,224.037,223.637,0,500,0z"/>
<circle fill="#464654" cx="500.001" cy="500.4" r="470.376"/>
<path fill="#ACCCFF" d="M427.958,527.822c-20.477-15.306-20.497-40.351-0.024-55.655l178.978-155.649
	c0-25.564-16.791-33.957-37.267-18.653L336.434,472.167c-20.474,15.304-20.454,40.349,0.022,55.655l233.209,174.313
	c20.477,15.306,37.246,6.912,37.246-18.65L427.958,527.822z"/>
<path display="none" d="M365.037,541.377c-30.452-22.763-30.482-60.01-0.034-82.771l311.534-231.483
	c0-38.02-24.971-50.501-55.423-27.74L274.282,458.606c-30.447,22.761-30.418,60.008,0.034,82.771l346.832,259.24
	c30.451,22.762,55.389,10.278,55.389-27.737L365.037,541.377z"/>
</svg>
