<?xml version="1.0" encoding="utf-8"?>
<!-- Generator: Adobe Illustrator 16.0.0, SVG Export Plug-In . SVG Version: 6.00 Build 0)  -->
<!DOCTYPE svg PUBLIC "-//W3C//DTD SVG 1.1//EN" "http://www.w3.org/Graphics/SVG/1.1/DTD/svg11.dtd">
<svg version="1.1" id="Layer_3" xmlns="http://www.w3.org/2000/svg" xmlns:xlink="http://www.w3.org/1999/xlink" x="0px" y="0px"
	 width="719.744px" height="537.12px" viewBox="0 0 719.744 537.12" enable-background="new 0 0 719.744 537.12"
	 xml:space="preserve">
<path fill="#231F20" d="M668.723,34.734c-0.519-2.601-2.057-4.886-4.271-6.345c-2.216-1.46-4.926-1.971-7.516-1.422
	c-1.462,0.311-36.259,7.786-77.24,25.245c-33.163,14.128-60.209,30.331-80.914,48.435c-33.3-3.193-62.28-1.057-84.672,2.505
	c-35.158,5.591-60.131,15.36-70.762,20.074c-10.633-4.714-35.604-14.483-70.762-20.074c-42.699-6.792-109.333-8.438-184.275,22.283
	c-4.625,1.896-7.646,6.4-7.647,11.4c0,0-0.018,373.988-0.014,374.646c0.072,10.846,8.929,13.221,12.335,13.221
	c1.414,0,2.817-0.243,4.148-0.72c65.209-23.318,127.309-22.16,167.923-17.081c44.327,5.543,73.496,16.834,73.773,16.942
	c0.011,0.004,0.022,0.007,0.033,0.012c0.327,0.128,0.661,0.24,0.999,0.34c0.106,0.031,0.214,0.057,0.321,0.085
	c0.233,0.063,0.468,0.119,0.706,0.168c0.129,0.026,0.258,0.051,0.387,0.073c0.229,0.039,0.457,0.07,0.688,0.097
	c0.118,0.013,0.236,0.029,0.354,0.039c0.332,0.028,0.666,0.046,1.002,0.047c0.009,0,0.017,0.001,0.025,0.001
	c0.001,0,0.002,0,0.003,0s0.002,0,0.003,0c0.009,0,0.017-0.001,0.024-0.001c0.337-0.001,0.672-0.019,1.006-0.047
	c0.113-0.01,0.228-0.025,0.341-0.038c0.237-0.027,0.472-0.059,0.706-0.1c0.124-0.021,0.247-0.044,0.371-0.069
	c0.244-0.05,0.486-0.108,0.727-0.173c0.102-0.027,0.203-0.051,0.305-0.081c0.338-0.101,0.673-0.212,1.001-0.341
	c0.012-0.004,0.023-0.007,0.035-0.012c1.146-0.453,116.238-44.729,241.697,0.139c1.331,0.477,2.734,0.72,4.148,0.72
	c3.406,0,12.263-2.375,12.335-13.221c0.004-0.658,0.008-1.635,0.012-2.91c0.008-2.516,0.014-6.21,0.02-10.924
	c0.011-9.409,0.019-22.887,0.022-39.158c0.009-32.535,0.005-76.243-0.004-120.934c-0.01-50.581-0.026-102.415-0.04-140.74
	c9.356-8.118,17.821-16.863,25.2-26.086c4.894-6.118,1.895-12.896-1.114-17.334c9.708-0.617,15.034-2.466,17.783-7.37
	C679.27,90.092,669.168,36.969,668.723,34.734z"/>
<path fill="#289449" d="M638.516,130.145c-2.749,4.904-8.075,6.753-17.783,7.37c3.009,4.438,6.008,11.216,1.114,17.334
	c-7.379,9.223-15.844,17.968-25.2,26.086c0.014,38.325,0.03,90.159,0.04,140.74c0.009,44.69,0.013,88.398,0.004,120.934
	c-0.004,16.271-0.012,29.749-0.022,39.158c-0.006,4.714-0.012,8.408-0.02,10.924c-0.004,1.275-0.008,2.252-0.012,2.91
	c-0.072,10.846-8.929,13.221-12.335,13.221c-1.414,0-2.817-0.243-4.148-0.72c-125.459-44.867-240.552-0.592-241.697-0.139
	c-0.012,0.005-0.023,0.008-0.035,0.012c-0.328,0.129-0.663,0.24-1.001,0.341c-0.102,0.03-0.203,0.054-0.305,0.081
	c-0.24,0.064-0.482,0.123-0.727,0.173c-0.124,0.025-0.247,0.048-0.371,0.069c-0.234,0.041-0.469,0.072-0.706,0.1
	c-0.113,0.013-0.228,0.028-0.341,0.038c-0.334,0.028-0.669,0.046-1.006,0.047c-0.008,0-0.016,0.001-0.024,0.001
	c-0.001,0-0.002,0-0.003,0s-0.002,0-0.003,0c-0.009,0-0.017-0.001-0.025-0.001c-0.336-0.001-0.67-0.019-1.002-0.047
	c-0.118-0.01-0.236-0.026-0.354-0.039c-0.23-0.026-0.459-0.058-0.688-0.097c-0.129-0.022-0.258-0.047-0.387-0.073
	c-0.238-0.049-0.473-0.105-0.706-0.168c-0.107-0.028-0.215-0.054-0.321-0.085c-0.338-0.1-0.672-0.212-0.999-0.34
	c-0.011-0.005-0.022-0.008-0.033-0.012c-0.277-0.108-29.446-11.399-73.773-16.942c-40.614-5.079-102.714-6.237-167.923,17.081
	c-1.331,0.477-2.734,0.72-4.148,0.72c-3.406,0-12.263-2.375-12.335-13.221c-0.004-0.658,0.014-374.646,0.014-374.646
	c0.001-5,3.022-9.504,7.647-11.4c74.942-30.721,141.576-29.075,184.275-22.283c35.157,5.591,60.129,15.36,70.762,20.074
	c10.631-4.714,35.604-14.483,70.762-20.074c22.392-3.562,51.372-5.698,84.672-2.505c20.705-18.104,47.751-34.307,80.914-48.435
	c40.981-17.459,75.778-24.935,77.24-25.245c2.59-0.55,5.3-0.039,7.516,1.421c2.214,1.459,3.752,3.744,4.271,6.345
	C659.757,21.087,669.858,74.21,638.516,130.145z"/>
<path fill="#FFFFFF" d="M259.534,466.674c25.34,3.22,45.853,8.133,59.618,12.07V127.858c-11.306-4.59-32.587-12.012-60.859-16.411
	c-37.908-5.898-96.309-7.362-162.401,17.881c-0.06,146.031-0.096,300.067-0.045,350.147
	C159.823,460.062,219.472,461.581,259.534,466.674z"/>
<path fill="#FFFFFF" d="M561.648,205.977c-24.822,14.669-54.333,26.62-87.71,35.521c-0.844,0.226-1.702,0.335-2.557,0.335
	c-1.558,0-3.095-0.375-4.488-1.082c-11.32,17.908-22.688,37.482-33.704,58.729c-1.766,3.404-5.229,5.355-8.815,5.355
	c-1.539,0-3.1-0.358-4.56-1.115c-4.864-2.522-6.763-8.51-4.24-13.375c11.668-22.502,23.661-43.131,35.566-61.92l-0.957-0.766
	c-1.515-1.212-2.641-2.841-3.239-4.687c-11.447-35.295-8.452-68.411,8.902-98.43c3.264-5.646,7.022-11.155,11.255-16.53
	c-57.245-1.79-100.438,12.581-118.379,19.846v350.886c13.766-3.938,34.278-8.851,59.619-12.07
	c40.061-5.09,99.71-6.613,163.688,12.802c0.044-43.581,0.022-165.886-0.023-293.131c-1.3-0.396-2.736-0.866-4.332-1.428
	C569.297,195.083,567.978,202.236,561.648,205.977z"/>
<path fill="#FFFFFF" d="M640.991,33.116c-32.793,8.648-132.141,39.338-167.984,101.389c-13.18,22.815-16.319,47.948-9.378,74.813
	c54.945-81.503,104.788-122.886,107.466-125.08c4.236-3.473,10.488-2.852,13.962,1.388c3.473,4.238,2.852,10.489-1.388,13.962
	c-0.624,0.513-49.045,40.806-102.37,119.199c25.154-7.548,47.684-16.962,67.14-28.082c-0.212-2.555-1.116-7.828-4.338-18.126
	c-0.73-2.336-1.953-6.244,1.038-10.314c1.869-2.544,4.839-4.047,7.996-4.047c1.723,0,3.402,0.449,4.878,1.282
	c4.39,2.207,17.265,7.5,22.938,8.76c8.044-6.727,15.377-13.949,21.874-21.544c-1.634-1.935-4.399-4.865-9.017-9.302
	c-3.174-3.051-5.467-5.254-5.467-9.614c0-4.005,2.865-9.963,10.76-9.963c0.673,0,1.7,0.017,2.98,0.037
	c1.962,0.032,4.567,0.075,7.394,0.075c7.325,0,11.319-0.308,13.404-0.573C641.207,82.849,642.032,49.46,640.991,33.116z"/>
<path fill="#289449" d="M141.795,387.483c38.423-15.752,72.527-15.022,94.375-11.64c23.703,3.672,38.579,11.178,38.882,11.332
	c4.054,2.096,9.045,0.518,11.152-3.535c2.108-4.058,0.529-9.057-3.528-11.165c-2.664-1.384-66.162-33.518-147.162-0.314
	c-4.231,1.734-6.255,6.57-4.521,10.802c1.313,3.203,4.404,5.142,7.664,5.142C139.703,388.104,140.768,387.904,141.795,387.483z"/>
<path fill="#289449" d="M141.795,320.188c38.42-15.751,72.525-15.022,94.375-11.64c23.703,3.672,38.579,11.178,38.882,11.332
	c4.054,2.098,9.045,0.518,11.152-3.535c2.108-4.058,0.529-9.057-3.528-11.165c-2.664-1.384-66.162-33.518-147.162-0.314
	c-4.231,1.734-6.255,6.57-4.521,10.802c1.313,3.203,4.404,5.142,7.664,5.142C139.703,320.809,140.767,320.608,141.795,320.188z"/>
<path fill="#289449" d="M141.795,252.892c38.42-15.751,72.525-15.022,94.375-11.64c23.83,3.691,38.737,11.258,38.886,11.334l0,0
	c4.052,2.095,9.043,0.516,11.148-3.537c2.108-4.058,0.529-9.057-3.528-11.165c-2.664-1.384-66.162-33.519-147.162-0.314
	c-4.231,1.734-6.255,6.57-4.521,10.802c1.313,3.203,4.404,5.142,7.664,5.142C139.703,253.513,140.767,253.313,141.795,252.892z"/>
<path fill="#289449" d="M141.795,185.597c38.42-15.751,72.525-15.024,94.375-11.64c23.83,3.691,38.737,11.258,38.886,11.334l0,0
	c4.052,2.094,9.043,0.515,11.148-3.537c2.108-4.058,0.529-9.057-3.528-11.165c-2.664-1.384-66.162-33.518-147.162-0.314
	c-4.231,1.734-6.255,6.57-4.521,10.802c1.313,3.203,4.404,5.142,7.664,5.142C139.703,186.218,140.767,186.018,141.795,185.597z"/>
</svg>
