<?xml version="1.0" encoding="utf-8"?>
<!-- Generator: Adobe Illustrator 16.0.0, SVG Export Plug-In . SVG Version: 6.00 Build 0)  -->
<!DOCTYPE svg PUBLIC "-//W3C//DTD SVG 1.1//EN" "http://www.w3.org/Graphics/SVG/1.1/DTD/svg11.dtd">
<svg version="1.1" id="Layer_1" xmlns="http://www.w3.org/2000/svg" xmlns:xlink="http://www.w3.org/1999/xlink" x="0px" y="0px"
	 width="719.744px" height="537.12px" viewBox="0 0 719.744 537.12" enable-background="new 0 0 719.744 537.12"
	 xml:space="preserve">
<rect display="none" fill="none" width="48" height="48"/>
<path fill="#000333" d="M360.015,16.951L163.643,167.082v-62.84H98.175v112.586L0,291.876l39.705,51.935l58.47-44.527V536.37
	h523.636V299.297l58.507,44.543L720,291.905L360.015,16.951z M556.38,470.91h-163.65V340.005h-65.459V470.91H163.643V249.127
	l196.372-149.7l196.38,150.132L556.38,470.91L556.38,470.91z"/>
<path fill="#289449" d="M360.015,0L163.643,150.132v-62.84H98.175v112.586L0,274.933l39.705,51.928l58.47-44.528v237.087h523.636
	V282.332l58.507,44.528L720,274.933L360.015,0z M556.38,453.974h-163.65V323.055h-65.459v130.919H163.643V232.169L360.015,82.491
	l196.38,150.124L556.38,453.974L556.38,453.974z"/>
</svg>
