<?xml version="1.0" encoding="utf-8"?>
<!-- Generator: Adobe Illustrator 16.0.0, SVG Export Plug-In . SVG Version: 6.00 Build 0)  -->
<!DOCTYPE svg PUBLIC "-//W3C//DTD SVG 1.1//EN" "http://www.w3.org/Graphics/SVG/1.1/DTD/svg11.dtd">
<svg version="1.1" id="Layer_1" xmlns="http://www.w3.org/2000/svg" xmlns:xlink="http://www.w3.org/1999/xlink" x="0px" y="0px"
	 width="48px" height="36px" viewBox="0 0 48 36" enable-background="new 0 0 48 36" xml:space="preserve">
<rect display="none" fill="none" width="48" height="48"/>
<path fill="#000333" d="M24.018,1.131L10.917,11.146V6.954H6.55v7.511L0,19.471l2.649,3.465l3.901-2.971v15.816h34.935V19.966
	l3.902,2.972l2.647-3.465L24.018,1.131z M37.118,31.415H26.201v-8.733h-4.367v8.733H10.917V16.619l13.101-9.986l13.101,10.015
	L37.118,31.415L37.118,31.415z"/>
<path fill="#289449" d="M24.018,0L10.917,10.015V5.823H6.55v7.511L0,18.341l2.649,3.464l3.901-2.97V34.65h34.935V18.835l3.902,2.97
	l2.647-3.464L24.018,0z M37.118,30.285H26.201v-8.734h-4.367v8.734H10.917V15.488l13.101-9.985l13.101,10.015L37.118,30.285
	L37.118,30.285z"/>
</svg>
